<svg width="204" height="59" viewBox="0 0 204 59" fill="none" xmlns="http://www.w3.org/2000/svg">
<g clip-path="url(#clip0_2403_439)">
<path d="M60.3215 23.8063C58.5849 19.7092 55.7881 16.1318 52.2099 13.4305C48.6317 10.7293 44.397 8.99857 39.9279 8.41088C35.4588 7.82319 30.9113 8.39905 26.7386 10.0811C22.5659 11.7631 18.9137 14.4925 16.1461 17.9973C13.3784 21.5021 11.592 25.6599 10.9647 30.0564C10.3374 34.4529 10.8912 38.9344 12.5709 43.0545C14.2506 47.1745 16.9976 50.7892 20.5381 53.5382C24.0785 56.2872 28.2889 58.0746 32.7494 58.7223C32.1651 56.6491 31.5708 54.3578 31.047 51.9275C32.5709 52.9009 34.1749 53.747 35.8421 54.457V54.457C35.8421 54.457 35.963 56.5995 36.1242 58.9901C37.9256 59.0207 39.7253 58.8644 41.4935 58.5239C41.4478 58.2746 41.4478 58.0193 41.4935 57.77C41.7856 55.9151 42.5916 52.5723 42.7527 50.4198C43.9145 49.3498 44.9001 48.1082 45.6741 46.7397V46.7397L45.6137 47.1762C45.0596 51.4018 43.9012 55.9151 43.196 57.1649C42.9677 57.5786 42.6867 57.962 42.3599 58.3056C46.0064 57.4633 49.4232 55.8502 52.3735 53.5781C55.3238 51.3059 57.7369 48.4292 59.4456 45.1473C61.1543 41.8653 62.1177 38.2568 62.2689 34.5717C62.4202 30.8867 61.7557 27.2133 60.3215 23.8063V23.8063ZM58.8406 27.5657C58.3974 27.9923 57.4807 28.2799 57.3296 26.9904C57.1785 25.7009 57.1382 24.7983 57.1382 24.7983C57.1382 24.7983 55.1939 21.3959 54.4686 21.3563C53.7433 21.3166 48.5956 24.7983 47.2356 26.3159C46.057 27.5955 45.8253 27.5062 45.8253 29.7579C45.8253 31.4541 46.0469 37.862 45.926 42.7621L37.7158 44.9146C35.1353 45.6438 32.511 46.2137 29.8582 46.6207L28.8509 40.8378H28.7098L26.1209 27.774C26.1209 27.774 22.2827 26.3457 20.8724 25.9588C20.2102 25.6735 19.4789 25.5808 18.7649 25.6915C18.0509 25.8023 17.384 26.1118 16.8429 26.5837C16.2908 27.0597 15.8494 27.6471 15.5487 28.3061C15.2479 28.9651 15.0949 29.6802 15.1001 30.4027C15.313 30.8637 15.4751 31.3459 15.5836 31.841C15.634 32.3171 14.3748 32.2675 13.5689 32.2675C12.763 32.2675 12.6421 30.8391 13.2767 29.1627C13.7719 27.8737 14.3855 26.632 15.1102 25.4529C15.6552 24.3997 16.3581 23.4333 17.1954 22.5862C17.1954 22.5862 17.3365 22.249 18.4547 22.3482C19.5729 22.4474 25.7884 22.7747 25.7884 22.7747L25.8388 20.523C32.5947 19.6045 39.4083 19.1603 46.2282 19.1938C46.2282 19.7989 46.2282 20.404 46.2282 21.0091C48.8114 19.8483 51.5929 19.1754 54.4283 19.0252C54.58 19.0214 54.7303 19.0548 54.8657 19.1223C55.0011 19.1898 55.1173 19.2894 55.204 19.4121C55.5465 19.8386 57.6318 22.3879 57.8736 22.7549C58.5507 23.7078 59.1664 24.7017 59.7171 25.7307C59.5283 26.3822 59.2323 26.9988 58.8406 27.5558V27.5657Z" fill="#FDC305"/>
<path d="M56.8768 21.4951C57.3503 22.0903 57.7633 22.616 57.8842 22.7747C58.5613 23.7277 59.1771 24.7215 59.7277 25.7505C59.536 26.3806 59.2436 26.9767 58.8613 27.5161C58.4181 27.9427 57.5014 28.2303 57.3503 26.9408C57.1992 25.6513 57.1387 24.7983 57.1387 24.7983C57.1387 24.7983 55.1945 21.3959 54.4691 21.3563C53.7438 21.3166 48.5961 24.7983 47.2361 26.3159C46.0575 27.5955 45.8258 27.5062 45.8258 29.7579C45.8258 31.2458 45.9971 36.3542 45.9568 40.8973C47.7801 41.0957 50.4598 41.5916 51.2657 42.7621C51.2657 42.7621 50.9735 35.64 59.1333 39.3697C59.1333 39.3697 59.4154 29.6587 70.6779 32.1485C66.8493 27.7223 62.1559 24.0994 56.8768 21.4951V21.4951Z" fill="#F06351"/>
<path d="M46.2691 19.1938C46.31 13.6973 45.8379 8.2087 44.8587 2.79724C44.8587 2.79724 44.7076 1.50773 43.9823 2.55918C43.3838 3.81617 42.9765 5.15308 42.7735 6.5269C38.4671 6.25483 34.1445 6.36771 29.8588 6.86416C29.0328 4.13635 27.6224 2.89643 26.9475 3.22377C26.2725 3.55111 26.1919 6.4773 26.1919 6.4773L25.8595 20.523C32.622 19.6036 39.4425 19.1594 46.2691 19.1938V19.1938Z" fill="#F06351"/>
<path d="M45.684 46.7397C45.8149 45.6784 45.8854 44.2698 45.9257 42.7125L37.716 44.865C35.1366 45.611 32.5124 46.1974 29.8588 46.6207L30.9769 51.5804C30.9769 51.6895 30.9769 51.7986 31.0474 51.9077C32.5713 52.8811 34.1752 53.7272 35.8423 54.4371C38.2787 53.2903 40.5993 51.9186 42.7728 50.3405V50.4C43.9293 49.3352 44.9113 48.1005 45.684 46.7397V46.7397Z" fill="#E55645"/>
<path d="M32.2362 16.0891C32.1859 15.9899 33.2436 16.7636 33.6566 17.0017C34.0696 17.2397 34.271 17.4183 34.271 17.5869C34.271 17.7556 34.0091 17.9242 33.6465 17.9242C33.2839 17.9242 32.7198 17.8051 32.6392 17.6663C32.5586 17.5274 33.2436 17.6663 33.5861 17.6663H33.8782C33.258 17.2195 32.7052 16.6885 32.2362 16.0891Z" fill="black"/>
<path d="M39.7915 16.1982C39.7915 16.1982 38.7842 17.4679 38.6935 17.5274C38.6029 17.5869 38.5223 17.8647 38.8849 17.8151C39.3012 17.7539 39.7121 17.661 40.1139 17.5373C40.2247 17.4778 40.1844 17.3389 39.993 17.3588C39.8016 17.3786 39.308 17.4084 38.9856 17.4679L39.8419 16.2081C39.8419 16.2081 39.8721 16.0891 39.7915 16.1982Z" fill="black"/>
<path d="M36.6284 22.2589C37.0953 22.0563 37.4813 21.7077 37.7264 21.267C38.0085 20.6123 37.7264 20.3643 37.2832 20.275C36.6734 20.1655 36.0441 20.2859 35.5203 20.6123C35.1275 20.9793 35.1778 21.3364 35.5203 21.6042C35.8606 21.867 36.2328 22.0869 36.6284 22.2589V22.2589Z" fill="black"/>
<path d="M36.2656 23.5087C36.1499 23.7337 35.9928 23.9355 35.8022 24.1039C35.5153 24.3312 35.1626 24.4631 34.7949 24.4808C34.2403 24.5344 33.6857 24.3784 33.2436 24.0444C33.0405 23.9274 32.8598 23.7764 32.7097 23.598C32.6089 23.49 32.4851 23.4053 32.347 23.35C32.347 23.35 33.1025 27.4269 34.9359 28.0815C36.7692 28.7362 37.1117 27.3277 37.1621 26.9507C37.2235 25.8218 36.9354 24.7011 36.3361 23.7369C36.3361 23.4393 36.3159 23.6377 36.2656 23.5087Z" fill="#F06351"/>
<path d="M34.553 24.6395C34.0816 24.5728 33.6288 24.4127 33.222 24.1689C32.8151 23.9251 32.4626 23.6027 32.1858 23.2211C32.161 23.1938 32.1473 23.1585 32.1473 23.1219C32.1473 23.0853 32.161 23.05 32.1858 23.0227C32.1989 23.0095 32.2146 22.999 32.2319 22.9919C32.2492 22.9847 32.2678 22.981 32.2865 22.981C32.3053 22.981 32.3239 22.9847 32.3412 22.9919C32.3585 22.999 32.3742 23.0095 32.3873 23.0227C32.6366 23.3671 32.9528 23.6593 33.3177 23.8823C33.6825 24.1054 34.0888 24.2549 34.5128 24.3221C34.8482 24.2973 35.1728 24.1945 35.46 24.022C35.7472 23.8496 35.9888 23.6125 36.1648 23.3302L36.3058 23.1417L36.4065 23.36C36.4065 23.36 36.7893 24.1138 37.4139 24.1535C38.0384 24.1932 38.4816 23.7369 39.0558 22.8739C39.0772 22.8423 39.1104 22.8204 39.1482 22.813C39.186 22.8055 39.2252 22.8132 39.2573 22.8342C39.2894 22.8553 39.3116 22.888 39.3192 22.9252C39.3267 22.9624 39.319 23.001 39.2976 23.0326C38.626 24.0047 37.9914 24.4709 37.3937 24.4312C37.1627 24.4011 36.9415 24.3204 36.7463 24.1951C36.551 24.0698 36.3868 23.9031 36.2655 23.7071C36.0684 23.9781 35.8124 24.2025 35.5162 24.3638C35.22 24.5251 34.8909 24.6193 34.553 24.6395Z" fill="black"/>
<path d="M36.5275 37.9909C38.6138 37.9909 40.305 36.3255 40.305 34.2712C40.305 32.2168 38.6138 30.5514 36.5275 30.5514C34.4412 30.5514 32.75 32.2168 32.75 34.2712C32.75 36.3255 34.4412 37.9909 36.5275 37.9909Z" fill="#FDC305"/>
<path d="M41.5339 31.2458L38.3809 32.5452L39.5394 26.9607L31.9844 36.6419L35.1373 35.3425L33.9789 40.937L41.5339 31.2458ZM34.0897 35.0449L38.2802 29.6786L37.4643 33.6463L39.4789 32.8329L35.2582 38.2092L36.0741 34.2414L34.0897 35.0449Z" fill="#111111"/>
<path d="M32.6795 33.5868C33.3026 33.5868 33.8077 33.0894 33.8077 32.4758C33.8077 31.8622 33.3026 31.3648 32.6795 31.3648C32.0564 31.3648 31.5513 31.8622 31.5513 32.4758C31.5513 33.0894 32.0564 33.5868 32.6795 33.5868Z" fill="#111111"/>
<path d="M39.2476 37.614C39.6871 37.614 40.0434 37.2631 40.0434 36.8304C40.0434 36.3976 39.6871 36.0467 39.2476 36.0467C38.8081 36.0467 38.4518 36.3976 38.4518 36.8304C38.4518 37.2631 38.8081 37.614 39.2476 37.614Z" fill="#111111"/>
<path d="M40.2143 35.4615C40.4088 35.4615 40.5665 35.3061 40.5665 35.1143C40.5665 34.9226 40.4088 34.7672 40.2143 34.7672C40.0198 34.7672 39.8622 34.9226 39.8622 35.1143C39.8622 35.3061 40.0198 35.4615 40.2143 35.4615Z" fill="#111111"/>
<path d="M46.2187 20.9892C44.4003 22.6034 42.6876 24.3295 41.0912 26.1572C39.5009 27.9717 37.7063 29.6023 35.742 31.0177C35.5203 30.4919 34.0999 29.5099 34.0999 29.5099C34.0999 29.5099 30.9367 27.3773 28.8615 25.7009C27.7397 24.7809 26.6829 23.7867 25.6984 22.7251L23.6836 22.616C26.5919 26.7991 30.8527 29.8897 35.7722 31.3847C36.6385 31.2458 39.0764 29.5298 40.8998 28.1311C43.057 26.3247 45.0771 24.3654 46.9441 22.2688C47.4459 21.6816 47.835 21.0094 48.0925 20.285C46.9441 20.6619 46.2187 20.9892 46.2187 20.9892Z" fill="#F06351"/>
<path d="M65.7011 3.47176L57.179 12.8356L55.9501 10.8616L64.1598 0L65.7011 3.47176Z" fill="#FDC305"/>
<path d="M63.1125 17.1207L68.6931 13.0439L67.9074 9.33406L62.4678 14.1052L63.1125 17.1207Z" fill="#FDC305"/>
<path d="M60.3623 48.9716L66.5373 52.1259L69.5693 49.8048L62.8303 47.077L60.3623 48.9716Z" fill="#FDC305"/>
<path d="M1.96436 5.92182L5.05687 2.58894L14.415 11.5163L13.186 13.7779L1.96436 5.92182Z" fill="#FDC305"/>
<path d="M7.43417 16.1486L2.6997 13.0439L0.282104 16.8827L5.46987 19.2633L7.43417 16.1486Z" fill="#FDC305"/>
<path d="M14.012 52.1259L9.42859 55.4489L12.2491 59L16.2986 55.0124L14.012 52.1259Z" fill="#FDC305"/>
<path d="M26.1214 27.774C26.1214 27.774 22.2833 26.3457 20.873 25.9588C20.2108 25.6735 19.4795 25.5808 18.7655 25.6915C18.0515 25.8023 17.3845 26.1118 16.8434 26.5837C16.2914 27.0597 15.85 27.6471 15.5493 28.3061C15.2485 28.9651 15.0955 29.6802 15.1007 30.4027C15.3136 30.8637 15.4757 31.3459 15.5842 31.841C15.6346 32.3171 14.3754 32.2675 13.5694 32.2675C12.7635 32.2675 12.6427 30.8391 13.2773 29.1627C13.7724 27.8737 14.3861 26.632 15.1107 25.4529C9.6205 28.27 0 34.7771 0 34.7771C2.75186 34.6137 5.51305 34.6933 8.25046 35.0151C13.5392 35.5409 13.2874 39.6474 13.2874 39.6474C15.1476 39.1425 17.0433 38.7745 18.9589 38.5464C21.0946 38.4075 21.2457 40.6493 21.2457 40.6493L21.7796 44.4781C22.5903 43.6145 23.4844 42.8305 24.4492 42.1372C25.6928 41.157 27.2762 40.6942 28.8615 40.8477V40.8477L26.1214 27.774Z" fill="#F06351"/>
<path d="M86.2923 41.6611C85.2546 40.1469 84.7584 38.3356 84.882 36.5129V29.0735C84.7511 27.2374 85.2398 25.4102 86.2722 23.8758C87.2056 22.6921 88.8006 22.1035 91.057 22.1101C93.3134 22.1167 94.8412 22.6358 95.6404 23.6675C96.6148 24.9458 97.0903 26.5265 96.9801 28.1212V29.867H92.8097V27.9724C92.8041 27.4739 92.7604 26.9766 92.6788 26.4845C92.6284 26.1283 92.4623 25.7978 92.2053 25.5422C92.0467 25.4083 91.8626 25.3068 91.6637 25.2438C91.4648 25.1808 91.2551 25.1574 91.0469 25.1752C90.7479 25.1313 90.4425 25.1791 90.1721 25.3122C89.9017 25.4453 89.6796 25.6573 89.5359 25.9191C89.271 26.6157 89.1545 27.3585 89.1934 28.1014V37.5446C89.1475 38.2923 89.2821 39.0402 89.5863 39.7268C89.7316 39.9745 89.9473 40.175 90.2068 40.3037C90.4663 40.4323 90.7583 40.4835 91.0469 40.4509C91.3305 40.4904 91.6196 40.4407 91.8728 40.3089C92.1261 40.1771 92.3306 39.9699 92.4572 39.7169C92.7008 39.019 92.8068 38.2816 92.7694 37.5446V35.5607H96.9398V37.2767C97.0626 38.895 96.6259 40.5066 95.7008 41.8495C94.8143 42.9407 93.2832 43.4763 91.1074 43.4763C88.9315 43.4763 87.2291 42.8811 86.2923 41.6611Z" fill="#111111"/>
<path d="M102.662 22.3978H107.437L111.466 43.2283H107.497L106.782 38.6258H103.438L102.632 43.1986H98.6027L102.662 22.3978ZM106.339 36.0071L105.07 27.6352L103.811 36.0071H106.339Z" fill="#111111"/>
<path d="M114.559 25.5323H111.296V22.3978H122.094V25.5323H118.871V43.1986H114.549L114.559 25.5323Z" fill="#111111"/>
<path d="M130.567 22.3978H138.757V24.5602H133.518V31.4343H137.769V33.4876H133.518V41.1155H138.807V43.1986H130.567V22.3978Z" fill="#444444"/>
<path d="M141.185 22.3978H143.199L149.243 36.2154V22.3978H151.701V43.2283H149.818L143.774 29.0239V43.1986H141.275L141.185 22.3978Z" fill="#444444"/>
<path d="M154.956 22.3978H163.135V24.5602H157.897V31.4343H162.188V33.4876H157.937V41.1155H163.196V43.1986H154.956V22.3978Z" fill="#444444"/>
<path d="M165.563 22.3978H169.814C171.49 22.265 173.158 22.7259 174.519 23.6972C175.526 24.5602 176.019 25.9687 176.019 27.9228C176.019 30.568 175.15 32.1848 173.41 32.7734L176.432 43.1986H173.572L170.801 33.438H168.515V43.1986H165.563V22.3978ZM169.593 31.3251C170.563 31.4176 171.534 31.1486 172.312 30.5713C172.629 30.2024 172.866 29.7736 173.008 29.3113C173.15 28.849 173.194 28.363 173.138 27.8832C173.159 27.2102 173.06 26.5389 172.846 25.8993C172.76 25.6635 172.626 25.4471 172.453 25.2631C172.28 25.0791 172.071 24.9312 171.839 24.828C171.185 24.5638 170.48 24.4453 169.774 24.4808H168.475V31.3648L169.593 31.3251Z" fill="#444444"/>
<path d="M179.989 41.6611C179.026 40.0607 178.58 38.21 178.71 36.3542V29.4107C178.675 28.0708 178.845 26.7333 179.213 25.443C179.504 24.473 180.123 23.6297 180.966 23.0525C181.985 22.4481 183.163 22.1579 184.351 22.2192C185.119 22.1473 185.894 22.2414 186.621 22.495C187.348 22.7486 188.01 23.1555 188.561 23.6873C189.528 25.0205 189.985 26.6472 189.851 28.2799V29.0536H187.081V28.4089C187.1 27.6377 187.039 26.8667 186.899 26.1076C186.808 25.6211 186.535 25.186 186.134 24.8875C185.611 24.5836 185.007 24.4419 184.401 24.4808C183.743 24.4254 183.089 24.6247 182.578 25.0363C182.16 25.4267 181.887 25.9435 181.802 26.5044C181.675 27.3215 181.617 28.1477 181.631 28.9743V36.7014C181.551 37.8756 181.755 39.0518 182.225 40.1335C182.499 40.4662 182.846 40.7329 183.24 40.9133C183.634 41.0937 184.064 41.183 184.499 41.1744C184.933 41.1658 185.36 41.0595 185.746 40.8636C186.133 40.6677 186.469 40.3874 186.728 40.0442C187.214 38.9001 187.424 37.661 187.343 36.4237V34.9556H184.663V32.9023H190.002V43.1986H188.179L187.887 40.808C187.656 41.6022 187.159 42.2962 186.477 42.777C185.794 43.2578 184.967 43.4973 184.129 43.4565C183.341 43.5249 182.549 43.3961 181.825 43.0823C181.101 42.7684 180.47 42.2795 179.989 41.6611V41.6611Z" fill="#444444"/>
<path d="M196.127 35.8583L191.564 22.3978H194.304L197.537 32.4361L200.72 22.3978H203.491L198.958 35.8583V43.1986H196.137L196.127 35.8583Z" fill="#444444"/>
</g>
<defs>
<clipPath id="clip0_2403_439">
<rect width="203.481" height="59" fill="white"/>
</clipPath>
</defs>
</svg>
